<?xml version="1.0" encoding="UTF-8" standalone="no"?>
<!-- Created with Inkscape (http://www.inkscape.org/) -->

<svg
   width="256"
   height="256"
   viewBox="0 0 67.733328 67.733328"
   version="1.1"
   id="svg1"
   inkscape:version="1.3.2 (091e20e, 2023-11-25, custom)"
   sodipodi:docname="logo-flat-white.svg"
   inkscape:export-filename="logo.png"
   inkscape:export-xdpi="96"
   inkscape:export-ydpi="96"
   xmlns:inkscape="http://www.inkscape.org/namespaces/inkscape"
   xmlns:sodipodi="http://sodipodi.sourceforge.net/DTD/sodipodi-0.dtd"
   xmlns="http://www.w3.org/2000/svg"
   xmlns:svg="http://www.w3.org/2000/svg">
  <sodipodi:namedview
     id="namedview1"
     pagecolor="#6d6d6d"
     bordercolor="#eeeeee"
     borderopacity="1"
     inkscape:showpageshadow="0"
     inkscape:pageopacity="0"
     inkscape:pagecheckerboard="true"
     inkscape:deskcolor="#505050"
     inkscape:document-units="px"
     inkscape:zoom="2.2375049"
     inkscape:cx="-7.8212119"
     inkscape:cy="107.70926"
     inkscape:window-width="1920"
     inkscape:window-height="1010"
     inkscape:window-x="2249"
     inkscape:window-y="-6"
     inkscape:window-maximized="1"
     inkscape:current-layer="layer1"
     showguides="true">
    <sodipodi:guide
       position="-4.4934721,9.3298949"
       orientation="0,-1"
       id="guide1"
       inkscape:locked="false" />
    <sodipodi:guide
       position="7.745327,10.03939"
       orientation="0,-1"
       id="guide2"
       inkscape:locked="false" />
  </sodipodi:namedview>
  <defs
     id="defs1" />
  <g
     inkscape:label="Ebene 1"
     inkscape:groupmode="layer"
     id="layer1">
    <path
       id="path2"
       style="fill:#ffffff;fill-opacity:1;stroke-width:1.77271"
       d="M 39.246956,0.14643426 A 28.791265,34.982256 28.380361 0 0 13.933954,13.029716 l 7.398971,0.0035 8.943168,38.040478 L 50.23635,13.171707 H 60.879512 A 28.791265,34.982256 28.380361 0 0 39.246956,0.14643426 Z M 16.859613,17.78694 10.457785,17.81118 A 28.791265,34.982256 28.380361 0 0 4.4437408,33.82786 28.791265,34.982256 28.380361 0 0 29.441675,67.512741 28.791265,34.982256 28.380361 0 0 64.244891,33.82786 a 28.791265,34.982256 28.380361 0 0 -1.333,-15.961281 l -8.351107,-0.02425 -23.214838,43.888333 h -4.909564 z" />
  </g>
</svg>
