<?xml version="1.0" encoding="UTF-8" standalone="no"?>
<!-- Created with Inkscape (http://www.inkscape.org/) -->

<svg
   width="48"
   height="48"
   viewBox="0 0 12.7 12.7"
   version="1.1"
   id="svg1"
   inkscape:version="1.3.2 (091e20e, 2023-11-25)"
   sodipodi:docname="p-absent-hover.svg"
   xmlns:inkscape="http://www.inkscape.org/namespaces/inkscape"
   xmlns:sodipodi="http://sodipodi.sourceforge.net/DTD/sodipodi-0.dtd"
   xmlns="http://www.w3.org/2000/svg"
   xmlns:svg="http://www.w3.org/2000/svg">
  <sodipodi:namedview
     id="namedview1"
     pagecolor="#505050"
     bordercolor="#eeeeee"
     borderopacity="1"
     inkscape:showpageshadow="0"
     inkscape:pageopacity="0"
     inkscape:pagecheckerboard="0"
     inkscape:deskcolor="#505050"
     inkscape:document-units="mm"
     showguides="true"
     inkscape:zoom="6.9864717"
     inkscape:cx="41.007824"
     inkscape:cy="33.207034"
     inkscape:window-width="1360"
     inkscape:window-height="807"
     inkscape:window-x="1991"
     inkscape:window-y="75"
     inkscape:window-maximized="0"
     inkscape:current-layer="layer1"
     showgrid="false">
    <sodipodi:guide
       position="-6.3169271,6.3830729"
       orientation="0,-1"
       id="guide1"
       inkscape:locked="false" />
    <sodipodi:guide
       position="6.4161459,12.137761"
       orientation="1,0"
       id="guide2"
       inkscape:locked="false" />
  </sodipodi:namedview>
  <defs
     id="defs1" />
  <g
     inkscape:label="Ebene 1"
     inkscape:groupmode="layer"
     id="layer1">
    <path
       id="path1"
       style="fill:#ffffff;fill-opacity:1;stroke-width:0.264583"
       d="M 6.3830729 0.16536458 A 6.1515622 6.1515622 0 0 0 0.23151042 6.3169271 A 6.1515622 6.1515622 0 0 0 6.3830729 12.46849 A 6.1515622 6.1515622 0 0 0 12.534635 6.3169271 A 6.1515622 6.1515622 0 0 0 6.3830729 0.16536458 z M 6.3830729 2.2603271 A 4.1095014 4.0567594 0 0 1 10.492383 6.3169271 A 4.1095014 4.0567594 0 0 1 6.3830729 10.373527 A 4.1095014 4.0567594 0 0 1 2.273763 6.3169271 A 4.1095014 4.0567594 0 0 1 6.3830729 2.2603271 z " />
    <ellipse
       style="fill:#3df772;fill-opacity:0;stroke-width:0.264583"
       id="path2"
       cx="8.6154947"
       cy="0.36380208"
       rx="7.5902343"
       ry="0.33072916" />
    <ellipse
       style="fill:none;fill-opacity:1;stroke:#000000;stroke-width:1.04903;stroke-dasharray:none;stroke-opacity:1"
       id="path1-5"
       cx="6.3830729"
       cy="6.316927"
       rx="5.1679354"
       ry="5.1017895" />
  </g>
</svg>
