<?xml version="1.0" encoding="UTF-8" standalone="no"?>
<!-- Created with Inkscape (http://www.inkscape.org/) -->

<svg
   width="48"
   height="48"
   viewBox="0 0 12.7 12.7"
   version="1.1"
   id="svg1"
   inkscape:version="1.3.2 (091e20e, 2023-11-25, custom)"
   sodipodi:docname="p-announced-recurring.svg"
   xmlns:inkscape="http://www.inkscape.org/namespaces/inkscape"
   xmlns:sodipodi="http://sodipodi.sourceforge.net/DTD/sodipodi-0.dtd"
   xmlns="http://www.w3.org/2000/svg"
   xmlns:svg="http://www.w3.org/2000/svg">
  <sodipodi:namedview
     id="namedview1"
     pagecolor="#505050"
     bordercolor="#eeeeee"
     borderopacity="1"
     inkscape:showpageshadow="0"
     inkscape:pageopacity="0"
     inkscape:pagecheckerboard="0"
     inkscape:deskcolor="#505050"
     inkscape:document-units="mm"
     showguides="true"
     inkscape:zoom="5.6568543"
     inkscape:cx="3.0935922"
     inkscape:cy="15.379572"
     inkscape:window-width="1263"
     inkscape:window-height="706"
     inkscape:window-x="2571"
     inkscape:window-y="74"
     inkscape:window-maximized="0"
     inkscape:current-layer="layer1"
     showgrid="false">
    <sodipodi:guide
       position="-6.3169271,6.3830729"
       orientation="0,-1"
       id="guide1"
       inkscape:locked="false" />
    <sodipodi:guide
       position="6.4161459,12.137761"
       orientation="1,0"
       id="guide2"
       inkscape:locked="false" />
  </sodipodi:namedview>
  <defs
     id="defs1" />
  <g
     inkscape:label="Ebene 1"
     inkscape:groupmode="layer"
     id="layer1">
    <circle
       style="fill:#ffffff;fill-opacity:1;stroke-width:0.264583"
       id="path1"
       cx="6.3830729"
       cy="6.316927"
       r="6.1515622" />
    <ellipse
       style="fill:#3df772;fill-opacity:0;stroke-width:0.264583"
       id="path2"
       cx="8.6154947"
       cy="0.36380208"
       rx="7.5902343"
       ry="0.33072916" />
    <path
       id="path1-5"
       style="fill:#ffc933;stroke-width:0.210528"
       d="m 6.3830729,1.4221354 c -2.7033188,-10e-8 -4.8947918,2.1914729 -4.8947917,4.8947917 -2e-7,2.7033189 2.1914728,4.8947919 4.8947917,4.8947919 2.7033191,0 4.8947921,-2.1914728 4.8947921,-4.8947919 C 11.277368,4.8826023 10.647782,3.5206718 9.5554891,2.5910563 L 7.9276815,4.5821493 C 8.4380693,5.0278845 8.7310196,5.6723751 8.73125,6.35 8.7312501,7.6468624 7.6799353,8.6981772 6.3830729,8.6981771 5.0862105,8.6981772 4.0348957,7.6468624 4.0348958,6.35 c -1e-7,-1.2968624 1.0513147,-2.3481772 2.3481771,-2.3481771 0.023611,5.052e-4 0.047212,0.00137 0.070797,0.00258 L 8.0538119,2.7295491 C 8.0405498,2.7291507 6.3963379,1.422426 6.3830729,1.4221354 Z"
       sodipodi:nodetypes="cssccccsscccc" />
  </g>
</svg>
