<?xml version="1.0" encoding="UTF-8" standalone="no"?>
<!-- Created with Inkscape (http://www.inkscape.org/) -->

<svg
   width="48"
   height="48"
   viewBox="0 0 12.7 12.7"
   version="1.1"
   id="svg1"
   inkscape:version="1.3.2 (091e20e, 2023-11-25)"
   sodipodi:docname="p-announced-recurring.svg"
   xmlns:inkscape="http://www.inkscape.org/namespaces/inkscape"
   xmlns:sodipodi="http://sodipodi.sourceforge.net/DTD/sodipodi-0.dtd"
   xmlns="http://www.w3.org/2000/svg"
   xmlns:svg="http://www.w3.org/2000/svg">
  <sodipodi:namedview
     id="namedview1"
     pagecolor="#505050"
     bordercolor="#eeeeee"
     borderopacity="1"
     inkscape:showpageshadow="0"
     inkscape:pageopacity="0"
     inkscape:pagecheckerboard="0"
     inkscape:deskcolor="#505050"
     inkscape:document-units="mm"
     showguides="true"
     inkscape:zoom="0.49226105"
     inkscape:cx="-454.02739"
     inkscape:cy="-94.462075"
     inkscape:window-width="1264"
     inkscape:window-height="706"
     inkscape:window-x="2003"
     inkscape:window-y="106"
     inkscape:window-maximized="0"
     inkscape:current-layer="layer1"
     showgrid="false">
    <sodipodi:guide
       position="-6.3169271,6.3830729"
       orientation="0,-1"
       id="guide1"
       inkscape:locked="false" />
    <sodipodi:guide
       position="6.4161459,12.137761"
       orientation="1,0"
       id="guide2"
       inkscape:locked="false" />
  </sodipodi:namedview>
  <defs
     id="defs1" />
  <g
     inkscape:label="Ebene 1"
     inkscape:groupmode="layer"
     id="layer1">
    <circle
       style="fill:#ffffff;fill-opacity:1;stroke-width:0.264583"
       id="path1"
       cx="6.3830729"
       cy="6.316927"
       r="6.1515622" />
    <ellipse
       style="fill:#3df772;fill-opacity:0;stroke-width:0.264583"
       id="path2"
       cx="8.6154947"
       cy="0.36380208"
       rx="7.5902343"
       ry="0.33072916" />
    <path
       id="path1-5"
       style="fill:#ffc933;fill-opacity:1;stroke:#000000;stroke-width:1.03066;stroke-dasharray:none;stroke-opacity:1"
       d="M 6.3463826 1.3192993 A 5.0448298 5.0448298 0 0 0 1.3017293 6.3639526 A 5.0448298 5.0448298 0 0 0 6.3463826 11.409123 A 5.0448298 5.0448298 0 0 0 11.391553 6.3639526 A 5.0448298 5.0448298 0 0 0 6.3463826 1.3192993 z M 6.3463826 4.5511434 A 1.8132213 1.8132213 0 0 1 8.1597087 6.3639526 A 1.8132213 1.8132213 0 0 1 6.3463826 8.1772786 A 1.8132213 1.8132213 0 0 1 4.5335734 6.3639526 A 1.8132213 1.8132213 0 0 1 6.3463826 4.5511434 z " />
    <path
       style="fill:none;stroke:#000000;stroke-width:1;stroke-linecap:butt;stroke-linejoin:miter;stroke-dasharray:none;stroke-opacity:1"
       d="M 5.5260506,1.4219077 7.1741709,3.1023441 5.3644701,4.8474127"
       id="path3"
       sodipodi:nodetypes="ccc" />
    <path
       style="fill:none;stroke:#000000;stroke-width:1;stroke-linecap:butt;stroke-linejoin:miter;stroke-dasharray:none;stroke-opacity:1"
       d="M 7.3043221,7.8346291 5.6562018,9.5150655 7.4659026,11.260134"
       id="path4"
       sodipodi:nodetypes="ccc" />
  </g>
</svg>
