<?xml version="1.0" encoding="UTF-8" standalone="no"?>
<!-- Created with Inkscape (http://www.inkscape.org/) -->

<svg
   width="48"
   height="48"
   viewBox="0 0 12.7 12.7"
   version="1.1"
   id="svg1"
   sodipodi:docname="reload.svg"
   inkscape:version="1.3.2 (091e20e, 2023-11-25, custom)"
   inkscape:export-filename="reload.png"
   inkscape:export-xdpi="96"
   inkscape:export-ydpi="96"
   xmlns:inkscape="http://www.inkscape.org/namespaces/inkscape"
   xmlns:sodipodi="http://sodipodi.sourceforge.net/DTD/sodipodi-0.dtd"
   xmlns="http://www.w3.org/2000/svg"
   xmlns:svg="http://www.w3.org/2000/svg">
  <sodipodi:namedview
     id="namedview1"
     pagecolor="#505050"
     bordercolor="#eeeeee"
     borderopacity="1"
     inkscape:showpageshadow="0"
     inkscape:pageopacity="0"
     inkscape:pagecheckerboard="0"
     inkscape:deskcolor="#505050"
     inkscape:document-units="mm"
     inkscape:zoom="10.606569"
     inkscape:cx="24.135986"
     inkscape:cy="23.004612"
     inkscape:window-width="1920"
     inkscape:window-height="1010"
     inkscape:window-x="2249"
     inkscape:window-y="-6"
     inkscape:window-maximized="1"
     inkscape:current-layer="layer1" />
  <defs
     id="defs1">
    <marker
       style="overflow:visible"
       id="marker5"
       refX="0"
       refY="0"
       orient="auto-start-reverse"
       inkscape:stockid="Rounded arrow"
       markerWidth="0.45"
       markerHeight="0.45"
       viewBox="0 0 1 1"
       inkscape:isstock="true"
       inkscape:collect="always"
       preserveAspectRatio="xMidYMid">
      <path
         transform="scale(0.7)"
         d="m -0.21114562,-4.1055728 6.42229122,3.21114561 a 1,1 90 0 1 0,1.78885438 L -0.21114562,4.1055728 A 1.236068,1.236068 31.717474 0 1 -2,3 v -6 a 1.236068,1.236068 148.28253 0 1 1.78885438,-1.1055728 z"
         style="fill:context-stroke;fill-rule:evenodd;stroke:none"
         id="path5" />
    </marker>
    <marker
       style="overflow:visible"
       id="RoundedArrow"
       refX="0"
       refY="0"
       orient="auto-start-reverse"
       inkscape:stockid="Rounded arrow"
       markerWidth="0.4"
       markerHeight="0.4"
       viewBox="0 0 1 1"
       inkscape:isstock="true"
       inkscape:collect="always"
       preserveAspectRatio="xMidYMid">
      <path
         transform="scale(0.7)"
         d="m -0.21114562,-4.1055728 6.42229122,3.21114561 a 1,1 90 0 1 0,1.78885438 L -0.21114562,4.1055728 A 1.236068,1.236068 31.717474 0 1 -2,3 v -6 a 1.236068,1.236068 148.28253 0 1 1.78885438,-1.1055728 z"
         style="fill:context-stroke;fill-rule:evenodd;stroke:none"
         id="path8" />
    </marker>
  </defs>
  <g
     inkscape:label="Ebene 1"
     inkscape:groupmode="layer"
     id="layer1">
    <path
       id="path4"
       style="fill:none;fill-rule:evenodd;stroke:#f1f1f1;stroke-width:2.11666667;stroke-linejoin:round;marker-end:url(#RoundedArrow);stroke-dasharray:none"
       d="m 11.120777,6.0829811 c 0,2.2637861 -1.5991241,4.2123239 -3.8194122,4.6539669 C 5.0810769,11.178591 2.8580058,9.9903345 1.9916924,7.898869 1.1253789,5.8074035 1.8571035,3.3952307 3.7393727,2.1375386 5.6216419,0.87984647 8.1302178,1.1269196 9.7309562,2.7276579"
       sodipodi:nodetypes="csssc" />
    <path
       id="path4-2"
       style="fill:none;fill-rule:evenodd;stroke:#000000;stroke-width:1.05833;stroke-linejoin:round;stroke-dasharray:none;stroke-opacity:1;marker-end:url(#marker5)"
       d="m 11.133274,6.0839207 c 0,2.2637861 -1.5991246,4.2123243 -3.8194127,4.6539673 C 5.0935734,11.179531 2.8705023,9.9912738 2.0041889,7.8998086 1.1378754,5.8083431 1.8696,3.3961703 3.7518692,2.1384782 5.6341384,0.88078613 8.1427143,1.1278593 9.7434527,2.7285975"
       sodipodi:nodetypes="csssc" />
  </g>
</svg>
