<?xml version="1.0" encoding="UTF-8" standalone="no"?>
<!-- Created with Inkscape (http://www.inkscape.org/) -->

<svg
   width="1024"
   height="256"
   viewBox="0 0 270.9333 67.733325"
   version="1.1"
   id="svg1"
   inkscape:version="1.3.2 (091e20e, 2023-11-25, custom)"
   sodipodi:docname="logo-wide.svg"
   inkscape:export-filename="logo.png"
   inkscape:export-xdpi="96"
   inkscape:export-ydpi="96"
   xmlns:inkscape="http://www.inkscape.org/namespaces/inkscape"
   xmlns:sodipodi="http://sodipodi.sourceforge.net/DTD/sodipodi-0.dtd"
   xmlns="http://www.w3.org/2000/svg"
   xmlns:svg="http://www.w3.org/2000/svg">
  <sodipodi:namedview
     id="namedview1"
     pagecolor="#6d6d6d"
     bordercolor="#eeeeee"
     borderopacity="1"
     inkscape:showpageshadow="0"
     inkscape:pageopacity="0"
     inkscape:pagecheckerboard="true"
     inkscape:deskcolor="#505050"
     inkscape:document-units="px"
     inkscape:zoom="1.1187525"
     inkscape:cx="363.35116"
     inkscape:cy="147.48571"
     inkscape:window-width="1920"
     inkscape:window-height="1010"
     inkscape:window-x="2249"
     inkscape:window-y="-6"
     inkscape:window-maximized="1"
     inkscape:current-layer="layer1"
     showguides="true">
    <sodipodi:guide
       position="-4.4934719,9.329895"
       orientation="0,-1"
       id="guide1"
       inkscape:locked="false" />
    <sodipodi:guide
       position="7.7453267,10.039385"
       orientation="0,-1"
       id="guide2"
       inkscape:locked="false" />
  </sodipodi:namedview>
  <defs
     id="defs1" />
  <g
     inkscape:label="Ebene 1"
     inkscape:groupmode="layer"
     id="layer1">
    <path
       id="path2"
       style="fill:#ffffff;fill-opacity:1;stroke-width:1.77271"
       d="M 39.247212 0.14624429 A 28.791265 34.982256 28.380361 0 0 13.934031 13.029694 L 21.333062 13.033311 L 30.276184 51.073879 L 50.236204 13.171804 L 60.879481 13.171804 A 28.791265 34.982256 28.380361 0 0 39.247212 0.14624429 z M 16.859434 17.787026 L 10.457758 17.811314 A 28.791265 34.982256 28.380361 0 0 4.4436559 33.827905 A 28.791265 34.982256 28.380361 0 0 29.44161 67.512667 A 28.791265 34.982256 28.380361 0 0 55.356304 53.984812 C 55.352567 53.901592 55.33978 53.825383 55.337701 53.740899 C 55.318411 52.016856 55.609886 50.070365 56.211549 47.90198 C 56.734307 46.017973 57.49421 44.240728 58.490996 42.570006 C 59.510487 40.881509 60.710789 39.406366 62.09181 38.144437 C 62.596954 37.683923 63.129347 37.269828 63.675175 36.878365 A 28.791265 34.982256 28.380361 0 0 64.244649 33.827905 A 28.791265 34.982256 28.380361 0 0 62.911914 17.866608 L 54.561004 17.84232 L 31.345886 61.730591 L 26.436626 61.730591 L 16.859434 17.787026 z M 63.675175 36.878365 A 28.791265 34.982256 28.380361 0 1 55.356304 53.984812 C 55.428045 55.582341 55.795537 56.954498 56.478199 58.08637 C 57.219129 59.25943 58.329955 60.15715 59.810295 60.779228 C 61.290637 61.401306 63.177097 61.711988 65.469898 61.711988 C 67.176168 61.711988 68.852047 61.596813 70.498014 61.365756 C 72.156822 61.152472 73.666891 60.868051 75.027453 60.512578 L 76.085269 56.699891 C 75.472128 56.859854 74.807994 57.010905 74.093143 57.153094 C 73.400996 57.277509 72.675875 57.3932 71.917565 57.499842 C 71.159256 57.606484 70.378908 57.695393 69.57714 57.766493 C 68.780305 57.819813 67.990849 57.846591 67.208809 57.846591 C 64.329478 57.846591 62.328144 57.117601 61.204009 55.660162 C 60.084804 54.184949 59.904513 52.078827 60.66399 49.341685 L 79.45974 49.341685 C 79.603786 48.950664 79.746559 48.532872 79.88762 48.088532 C 80.028672 47.64419 80.190391 47.093544 80.372862 46.43592 C 80.90055 44.534139 81.118912 42.819031 81.027602 41.290498 C 80.958994 39.74419 80.574641 38.437777 79.875218 37.371358 C 79.198499 36.287166 78.222084 35.451581 76.945165 34.865051 C 75.668244 34.278521 74.096441 33.985518 72.230208 33.985518 C 70.310654 33.985518 68.4921 34.358336 66.774211 35.10483 C 65.674521 35.58269 64.646128 36.182006 63.675175 36.878365 z M 134.98399 23.240956 C 134.46855 23.240956 133.96174 23.338967 133.46315 23.534478 C 132.96951 23.712215 132.50704 23.969859 132.07564 24.307557 C 131.662 24.645257 131.2958 25.036272 130.977 25.480612 C 130.68093 25.90718 130.46115 26.378009 130.31813 26.893446 C 130.18007 27.391108 130.13805 27.862455 130.19255 28.306796 C 130.26477 28.751136 130.41436 29.142151 130.64059 29.479851 C 130.88459 29.817549 131.20135 30.083774 131.59143 30.279285 C 131.98646 30.45702 132.4418 30.545935 132.95724 30.545935 C 133.47267 30.545935 133.97719 30.457022 134.47085 30.279285 C 134.96943 30.083774 135.42561 29.817549 135.83924 29.479851 C 136.27064 29.142151 136.63686 28.751136 136.93788 28.306796 C 137.25664 27.862455 137.48502 27.391108 137.62311 26.893446 C 137.76611 26.378009 137.79901 25.90718 137.72181 25.480612 C 137.66737 25.036272 137.51828 24.645257 137.27429 24.307557 C 137.04806 23.969859 136.7376 23.712215 136.34257 23.534478 C 135.95247 23.338962 135.49942 23.240956 134.98399 23.240956 z M 184.1908 23.560833 L 173.73821 61.232431 L 178.3772 61.232431 L 183.30352 43.476411 C 184.50587 42.409992 185.55242 41.52137 186.44286 40.810424 C 187.33329 40.099478 188.12828 39.539735 188.82824 39.13094 C 189.53313 38.704372 190.17456 38.410853 190.75216 38.25089 C 191.35245 38.073156 191.96356 37.98424 192.58564 37.98424 C 194.02531 37.98424 194.98422 38.500044 195.46246 39.530916 C 195.96339 40.544014 195.92808 42.081294 195.35601 44.143037 L 190.61418 61.232431 L 195.25317 61.232431 L 200.09836 43.769933 C 201.00579 40.499581 200.95509 38.055483 199.94643 36.438081 C 198.9427 34.802906 197.1079 33.985518 194.44185 33.985518 C 193.65982 33.985518 192.88229 34.065334 192.10918 34.225297 C 191.33608 34.38526 190.54244 34.652001 189.72793 35.025248 C 188.93119 35.398495 188.09354 35.887004 187.21491 36.491308 C 186.359 37.077839 185.44539 37.806829 184.47502 38.677738 L 185.80414 34.465076 L 188.82979 23.560833 L 184.1908 23.560833 z M 230.90009 23.560833 L 227.77832 34.811824 C 227.04262 34.580767 226.27157 34.412037 225.4658 34.305395 C 224.6778 34.198752 223.85758 34.145198 223.00445 34.145198 C 221.03157 34.145198 219.14754 34.464978 217.3526 35.10483 C 215.58037 35.726908 213.94615 36.651405 212.45057 37.877787 C 210.97771 39.086394 209.68389 40.579217 208.56864 42.356583 C 207.45834 44.116174 206.58764 46.133382 205.9564 48.408409 C 205.40405 50.399058 205.09615 52.212177 205.03345 53.847353 C 204.97076 55.482528 205.15898 56.886437 205.59776 58.059498 C 206.05924 59.214785 206.77905 60.112505 207.7568 60.752357 C 208.75233 61.392208 210.01409 61.711988 211.54262 61.711988 C 213.30221 61.711988 215.06323 61.258837 216.8255 60.352381 C 218.58778 59.445925 220.37909 58.050597 222.19933 56.166591 L 220.95393 61.232431 L 225.11285 61.232431 L 235.56544 23.560833 L 230.90009 23.560833 z M 106.03589 33.985518 C 104.4718 33.985518 102.79804 34.411891 101.01501 35.265027 C 99.249754 36.118162 97.312506 37.49581 95.202963 39.39759 L 96.438029 34.465076 L 92.199012 34.465076 L 84.772076 61.232431 L 89.464296 61.232431 L 94.23558 44.036066 C 95.389547 42.951874 96.445823 42.027893 97.404378 41.263626 C 98.362933 40.49936 99.237723 39.877479 100.02851 39.39759 C 100.84199 38.899928 101.58949 38.544273 102.27075 38.330989 C 102.97471 38.099932 103.6377 37.98424 104.25977 37.98424 C 105.68166 37.98424 106.6087 38.517723 107.04152 39.584142 C 107.49705 40.632787 107.37269 42.330216 106.66841 44.676337 L 111.36063 44.676337 C 112.44867 41.139382 112.52182 38.472999 111.58026 36.67786 C 110.65647 34.882722 108.80858 33.985518 106.03589 33.985518 z M 163.22258 33.985518 C 161.08974 33.985518 159.24054 34.243161 157.67563 34.758598 C 156.11565 35.25626 154.81217 35.887239 153.76476 36.651505 C 152.71733 37.415771 151.89254 38.242258 151.29049 39.13094 C 150.70621 40.019622 150.31061 40.83701 150.10348 41.583503 C 149.78785 42.721017 149.72731 43.707651 149.9221 44.543012 C 150.11688 45.378374 150.50112 46.106848 151.075 46.728925 C 151.64888 47.351003 152.37862 47.893068 153.26349 48.355182 C 154.17107 48.799523 155.1797 49.199636 156.28967 49.555109 C 157.77392 50.034997 158.92616 50.46137 159.74682 50.834617 C 160.58527 51.207864 161.17774 51.572101 161.52345 51.927573 C 161.87408 52.265273 162.07502 52.630026 162.12652 53.021047 C 162.20063 53.394293 162.17078 53.820666 162.03763 54.300555 C 161.72693 55.420295 160.95456 56.282139 159.72046 56.886443 C 158.48636 57.490748 156.75851 57.793364 154.5368 57.793364 C 153.00827 57.793364 151.503 57.677672 150.0208 57.446616 C 148.5386 57.215558 147.07735 56.877581 145.63657 56.433241 L 144.45266 60.69913 C 145.81147 61.054603 147.22427 61.312246 148.69065 61.472209 C 150.17479 61.632173 151.82317 61.711988 153.63608 61.711988 C 154.47145 61.711988 155.34186 61.649851 156.24729 61.525436 C 157.15272 61.40102 158.05116 61.205513 158.94273 60.938909 C 159.85206 60.672304 160.72781 60.334844 161.56996 59.926051 C 162.41211 59.517256 163.18764 59.02823 163.89644 58.459474 C 164.61017 57.872943 165.23076 57.206606 165.75782 56.460113 C 166.28488 55.713619 166.6788 54.869454 166.94018 53.927451 C 167.2164 52.932127 167.31218 52.043504 167.22698 51.261464 C 167.15961 50.479424 166.87453 49.77721 166.37174 49.155133 C 165.86894 48.533055 165.14433 47.973312 164.19823 47.475649 C 163.25706 46.960214 162.05984 46.471187 160.6062 46.009072 C 159.26712 45.582505 158.19354 45.19149 157.38572 44.836017 C 156.58283 44.462771 155.97266 44.098534 155.55586 43.743061 C 155.16176 43.369814 154.92146 42.987899 154.83446 42.596878 C 154.76528 42.205857 154.79743 41.770386 154.93058 41.290498 C 155.06374 40.810609 155.29322 40.36604 155.61994 39.957246 C 155.95158 39.530678 156.39928 39.166442 156.96301 38.86429 C 157.54944 38.544364 158.25865 38.295302 159.09001 38.117565 C 159.93914 37.93983 160.94126 37.850915 162.09655 37.850915 C 163.05632 37.850915 164.16033 37.939828 165.40849 38.117565 C 166.67935 38.277528 167.99414 38.535172 169.35295 38.890645 L 170.49965 34.758598 C 169.19221 34.474219 167.9133 34.278712 166.66319 34.17207 C 165.418 34.047656 164.27122 33.985518 163.22258 33.985518 z M 252.24194 33.985518 C 251.35325 33.985518 250.45836 34.038557 249.55786 34.145198 C 248.6623 34.234067 247.7924 34.358339 246.9482 34.518302 C 246.104 34.678265 245.28819 34.865191 244.50029 35.078475 C 243.73509 35.273984 243.02985 35.478073 242.38414 35.691357 L 241.22246 39.877148 C 242.95915 39.25507 244.60331 38.775142 246.15445 38.437442 C 247.72336 38.099744 249.26305 37.931013 250.77381 37.931013 C 252.85333 37.931013 254.26655 38.410942 255.01334 39.370719 C 255.76506 40.312722 255.92148 41.574678 255.48257 43.156534 L 254.83144 45.502643 L 249.28605 45.502643 C 245.37584 45.502643 242.20444 46.266993 239.7719 47.795526 C 237.36206 49.306287 235.78508 51.403311 235.0404 54.087131 C 234.73958 55.171323 234.62085 56.175637 234.68435 57.099867 C 234.7656 58.024097 235.05634 58.832903 235.55717 59.526075 C 236.08072 60.201473 236.83044 60.73444 237.80613 61.12546 C 238.78183 61.516481 240.03396 61.711988 241.56249 61.711988 C 243.21543 61.711988 244.87718 61.392208 246.54771 60.752357 C 248.23601 60.112505 250.00882 59.072833 251.86573 57.633168 L 250.97328 61.232431 L 255.13272 61.232431 L 260.25178 42.78343 C 260.66599 41.290443 260.78609 39.992611 260.61197 38.890645 C 260.43784 37.788679 259.99848 36.873279 259.29422 36.144559 C 258.60774 35.415839 257.66533 34.873775 256.46648 34.518302 C 255.26764 34.16283 253.85934 33.985518 252.24194 33.985518 z M 122.32533 34.465076 L 121.26028 38.304117 L 129.17815 38.304117 L 123.88906 57.366517 L 115.09115 57.366517 L 114.01835 61.232431 L 135.48009 61.232431 L 136.55289 57.366517 L 128.58128 57.366517 L 134.93593 34.465076 L 122.32533 34.465076 z M 70.988423 37.691235 C 72.161484 37.691235 73.135988 37.895323 73.911242 38.304117 C 74.691427 38.695138 75.275876 39.2463 75.66514 39.957246 C 76.072177 40.668192 76.280157 41.521455 76.288357 42.516779 C 76.301492 43.494329 76.116061 44.57846 75.732319 45.769294 L 61.655661 45.769294 C 62.07495 44.57846 62.609243 43.485232 63.258663 42.489908 C 63.908084 41.494584 64.633703 40.641321 65.435274 39.930374 C 66.236846 39.219428 67.109344 38.668783 68.053202 38.277762 C 68.997061 37.886742 69.975325 37.691235 70.988423 37.691235 z M 221.619 37.98424 C 222.52546 37.98424 223.41398 38.082252 224.28396 38.277762 C 225.15887 38.455499 225.92877 38.722241 226.59441 39.077713 L 223.14708 51.501243 C 221.13533 53.562986 219.32675 55.117945 217.72053 56.166591 C 216.13209 57.215236 214.75121 57.739621 213.57815 57.739621 C 211.83633 57.739621 210.7049 56.949011 210.18404 55.367156 C 209.68588 53.767528 209.8854 51.350207 210.78297 48.115403 C 211.74958 44.631769 213.1621 42.072495 215.01992 40.43732 C 216.89553 38.802145 219.09515 37.98424 221.619 37.98424 z M 247.95538 49.04868 L 253.84752 49.04868 L 252.53081 53.794126 C 250.61267 55.198244 248.86945 56.228819 247.30064 56.886443 C 245.75453 57.526295 244.44792 57.846591 243.3815 57.846591 C 242.56391 57.846591 241.90049 57.739998 241.39092 57.526714 C 240.88134 57.31343 240.49795 57.029009 240.24112 56.673536 C 239.98921 56.30029 239.84752 55.882498 239.81582 55.420383 C 239.78903 54.940494 239.84695 54.442887 239.98997 53.927451 C 240.1971 53.180958 240.5065 52.514104 240.91808 51.927573 C 241.35236 51.32327 241.89535 50.807982 242.54692 50.381415 C 243.19849 49.954847 243.97393 49.625969 244.8734 49.394912 C 245.77286 49.163855 246.80009 49.04868 247.95538 49.04868 z " />
  </g>
</svg>
